# xmcd
# 
# Track frame offsets:
#     150
#     18488
#     32886
#     50975
#     67965
#     87020
#     102337
#     121180
#     135991
#     154239
# 
# Disc length: 2296
# 
# Revision: 0
# Processed by: cddbd v1.5.2PL0 Copyright (c) Steve Scherf et al.
# Submitted via: fre:ac v1.0.27
# 
DISCID=7f08f60a
DTITLE=Rod Jackson - Time Doesn't Wait
DYEAR=2010
DGENRE=Country
TTITLE0=Photograph
TTITLE1=Layin' It On The Line
TTITLE2=Wave On Wave
TTITLE3=A Guy Like Me
TTITLE4=Pull Me Out
TTITLE5=Walkin' All Over Me
TTITLE6=Farther Along
TTITLE7=Cheater
TTITLE8='Til I Gain Control Again
TTITLE9=At The End Of The Day
EXTD=
EXTT0=
EXTT1=
EXTT2=
EXTT3=
EXTT4=
EXTT5=
EXTT6=
EXTT7=
EXTT8=
EXTT9=
PLAYORDER=
